<svg id="visual" viewBox="0 0 900 600" width="900" height="600" xmlns="http://www.w3.org/2000/svg" xmlns:xlink="http://www.w3.org/1999/xlink" version="1.1"><path d="M0 73L82 91L164 73L245 49L327 43L409 43L491 55L573 43L655 55L736 31L818 91L900 85L900 0L818 0L736 0L655 0L573 0L491 0L409 0L327 0L245 0L164 0L82 0L0 0Z" fill="#fcaf3c"></path><path d="M0 157L82 187L164 115L245 151L327 85L409 145L491 157L573 133L655 133L736 85L818 169L900 187L900 83L818 89L736 29L655 53L573 41L491 53L409 41L327 41L245 47L164 71L82 89L0 71Z" fill="#fba432"></path><path d="M0 295L82 259L164 259L245 247L327 199L409 283L491 277L573 247L655 235L736 217L818 283L900 265L900 185L818 167L736 83L655 131L573 131L491 155L409 143L327 83L245 149L164 113L82 185L0 155Z" fill="#fa9a29"></path><path d="M0 427L82 367L164 445L245 439L327 451L409 367L491 451L573 415L655 427L736 301L818 451L900 403L900 263L818 281L736 215L655 233L573 245L491 275L409 281L327 197L245 245L164 257L82 257L0 293Z" fill="#f98e20"></path><path d="M0 553L82 535L164 535L245 565L327 535L409 565L491 529L573 517L655 517L736 517L818 565L900 565L900 401L818 449L736 299L655 425L573 413L491 449L409 365L327 449L245 437L164 443L82 365L0 425Z" fill="#f88317"></path><path d="M0 601L82 601L164 601L245 601L327 601L409 601L491 601L573 601L655 601L736 601L818 601L900 601L900 563L818 563L736 515L655 515L573 515L491 527L409 563L327 533L245 563L164 533L82 533L0 551Z" fill="#f7770f"></path></svg>