<svg id="visual" viewBox="0 0 900 600" width="900" height="600" xmlns="http://www.w3.org/2000/svg" xmlns:xlink="http://www.w3.org/1999/xlink" version="1.1"><path d="M0 61L30 79C60 97 120 133 180 137C240 141 300 113 360 86C420 59 480 33 540 40C600 47 660 87 720 96C780 105 840 83 870 72L900 61L900 0L870 0C840 0 780 0 720 0C660 0 600 0 540 0C480 0 420 0 360 0C300 0 240 0 180 0C120 0 60 0 30 0L0 0Z" fill="#6198ff"></path><path d="M0 97L30 112C60 127 120 157 180 158C240 159 300 131 360 108C420 85 480 67 540 77C600 87 660 125 720 136C780 147 840 131 870 123L900 115L900 59L870 70C840 81 780 103 720 94C660 85 600 45 540 38C480 31 420 57 360 84C300 111 240 139 180 135C120 131 60 95 30 77L0 59Z" fill="#4c8aff"></path><path d="M0 115L30 142C60 169 120 223 180 236C240 249 300 221 360 193C420 165 480 137 540 133C600 129 660 149 720 162C780 175 840 181 870 184L900 187L900 113L870 121C840 129 780 145 720 134C660 123 600 85 540 75C480 65 420 83 360 106C300 129 240 157 180 156C120 155 60 125 30 110L0 95Z" fill="#367cff"></path><path d="M0 163L30 184C60 205 120 247 180 262C240 277 300 265 360 246C420 227 480 201 540 188C600 175 660 175 720 184C780 193 840 211 870 220L900 229L900 185L870 182C840 179 780 173 720 160C660 147 600 127 540 131C480 135 420 163 360 191C300 219 240 247 180 234C120 221 60 167 30 140L0 113Z" fill="#196eff"></path><path d="M0 265L30 275C60 285 120 305 180 328C240 351 300 377 360 390C420 403 480 403 540 420C600 437 660 471 720 492C780 513 840 521 870 525L900 529L900 227L870 218C840 209 780 191 720 182C660 173 600 173 540 186C480 199 420 225 360 244C300 263 240 275 180 260C120 245 60 203 30 182L0 161Z" fill="#0062f5"></path><path d="M0 289L30 311C60 333 120 377 180 411C240 445 300 469 360 475C420 481 480 469 540 472C600 475 660 493 720 509C780 525 840 539 870 546L900 553L900 527L870 523C840 519 780 511 720 490C660 469 600 435 540 418C480 401 420 401 360 388C300 375 240 349 180 326C120 303 60 283 30 273L0 263Z" fill="#005be1"></path><path d="M0 583L30 586C60 589 120 595 180 590C240 585 300 569 360 557C420 545 480 537 540 537C600 537 660 545 720 553C780 561 840 569 870 573L900 577L900 551L870 544C840 537 780 523 720 507C660 491 600 473 540 470C480 467 420 479 360 473C300 467 240 443 180 409C120 375 60 331 30 309L0 287Z" fill="#0053ce"></path><path d="M0 601L30 601C60 601 120 601 180 601C240 601 300 601 360 601C420 601 480 601 540 601C600 601 660 601 720 601C780 601 840 601 870 601L900 601L900 575L870 571C840 567 780 559 720 551C660 543 600 535 540 535C480 535 420 543 360 555C300 567 240 583 180 588C120 593 60 587 30 584L0 581Z" fill="#004cbb"></path></svg>