<svg id="visual" viewBox="0 0 900 600" width="900" height="600" xmlns="http://www.w3.org/2000/svg" xmlns:xlink="http://www.w3.org/1999/xlink" version="1.1"><rect x="0" y="0" width="900" height="600" fill="#140021"></rect><path d="M602 0L327 0L327 40L782 40L782 80L662 80L662 120L329 120L329 160L277 160L277 200L410 200L410 240L748 240L748 280L741 280L741 320L671 320L671 360L338 360L338 400L391 400L391 440L788 440L788 480L753 480L753 520L289 520L289 560L761 560L761 600L0 600L0 560L0 560L0 520L0 520L0 480L0 480L0 440L0 440L0 400L0 400L0 360L0 360L0 320L0 320L0 280L0 280L0 240L0 240L0 200L0 200L0 160L0 160L0 120L0 120L0 80L0 80L0 40L0 40L0 0L0 0Z" fill="#560090"></path><path d="M421 0L562 0L562 40L409 40L409 80L500 80L500 120L627 120L627 160L132 160L132 200L134 200L134 240L432 240L432 280L321 280L321 320L446 320L446 360L324 360L324 400L166 400L166 440L454 440L454 480L622 480L622 520L521 520L521 560L142 560L142 600L0 600L0 560L0 560L0 520L0 520L0 480L0 480L0 440L0 440L0 400L0 400L0 360L0 360L0 320L0 320L0 280L0 280L0 240L0 240L0 200L0 200L0 160L0 160L0 120L0 120L0 80L0 80L0 40L0 40L0 0L0 0Z" fill="#6c00b4"></path><path d="M75 0L176 0L176 40L323 40L323 80L178 80L178 120L322 120L322 160L444 160L444 200L130 200L130 240L208 240L208 280L182 280L182 320L332 320L332 360L103 360L103 400L204 400L204 440L70 440L70 480L416 480L416 520L383 520L383 560L133 560L133 600L0 600L0 560L0 560L0 520L0 520L0 480L0 480L0 440L0 440L0 400L0 400L0 360L0 360L0 320L0 320L0 280L0 280L0 240L0 240L0 200L0 200L0 160L0 160L0 120L0 120L0 80L0 80L0 40L0 40L0 0L0 0Z" fill="#8200d9"></path><path d="M282 0L265 0L265 40L37 40L37 80L234 80L234 120L77 120L77 160L182 160L182 200L309 200L309 240L219 240L219 280L161 280L161 320L112 320L112 360L85 360L85 400L297 400L297 440L313 440L313 480L40 480L40 520L223 520L223 560L6 560L6 600L0 600L0 560L0 560L0 520L0 520L0 480L0 480L0 440L0 440L0 400L0 400L0 360L0 360L0 320L0 320L0 280L0 280L0 240L0 240L0 200L0 200L0 160L0 160L0 120L0 120L0 80L0 80L0 40L0 40L0 0L0 0Z" fill="#9900ff"></path></svg>