<svg id="visual" viewBox="0 0 900 600" width="900" height="600" xmlns="http://www.w3.org/2000/svg" xmlns:xlink="http://www.w3.org/1999/xlink" version="1.1"><rect x="0" y="0" width="900" height="600" fill="#0b004b"></rect><defs><linearGradient id="grad1_0" x1="33.3%" y1="0%" x2="100%" y2="100%"><stop offset="20%" stop-color="#4d00ff" stop-opacity="1"></stop><stop offset="80%" stop-color="#4d00ff" stop-opacity="1"></stop></linearGradient></defs><defs><linearGradient id="grad1_1" x1="33.3%" y1="0%" x2="100%" y2="100%"><stop offset="20%" stop-color="#4d00ff" stop-opacity="1"></stop><stop offset="80%" stop-color="#0b004b" stop-opacity="1"></stop></linearGradient></defs><defs><linearGradient id="grad2_0" x1="0%" y1="0%" x2="66.7%" y2="100%"><stop offset="20%" stop-color="#4d00ff" stop-opacity="1"></stop><stop offset="80%" stop-color="#4d00ff" stop-opacity="1"></stop></linearGradient></defs><defs><linearGradient id="grad2_1" x1="0%" y1="0%" x2="66.7%" y2="100%"><stop offset="20%" stop-color="#0b004b" stop-opacity="1"></stop><stop offset="80%" stop-color="#4d00ff" stop-opacity="1"></stop></linearGradient></defs><g transform="translate(900, 0)"><path d="M0 486.7C-26.3 445 -52.7 403.2 -75.9 381.5C-99.1 359.9 -119.3 358.4 -152.3 367.7C-185.4 377 -231.3 397.2 -257.2 385C-283.2 372.7 -289 328 -293.4 293.4C-297.8 258.9 -300.8 234.6 -330.9 221.1C-361.1 207.6 -418.5 205 -447.2 185.2C-475.8 165.5 -475.6 128.7 -477.4 95C-479.2 61.2 -483 30.6 -486.7 0L0 0Z" fill="#2605a1"></path><path d="M0 243.4C-13.2 222.5 -26.3 201.6 -37.9 190.8C-49.6 179.9 -59.6 179.2 -76.2 183.9C-92.7 188.5 -115.7 198.6 -128.6 192.5C-141.6 186.4 -144.5 164 -146.7 146.7C-148.9 129.5 -150.4 117.3 -165.5 110.6C-180.5 103.8 -209.3 102.5 -223.6 92.6C-237.9 82.7 -237.8 64.3 -238.7 47.5C-239.6 30.6 -241.5 15.3 -243.4 0L0 0Z" fill="#4d00ff"></path></g><g transform="translate(0, 600)"><path d="M0 -486.7C28.6 -460.2 57.1 -433.6 83.5 -419.8C109.9 -406 134.1 -404.9 169.9 -410.2C205.7 -415.5 253.1 -427.3 266.7 -399.1C280.3 -371 260.2 -302.9 275.1 -275.1C290 -247.2 339.9 -259.4 376.7 -251.7C413.4 -243.9 436.9 -216.1 449.7 -186.3C462.5 -156.5 464.4 -124.6 468.8 -93.3C473.2 -61.9 480 -30.9 486.7 0L0 0Z" fill="#2605a1"></path><path d="M0 -243.4C14.3 -230.1 28.6 -216.8 41.7 -209.9C54.9 -203 67.1 -202.4 85 -205.1C102.9 -207.8 126.5 -213.6 133.3 -199.6C140.1 -185.5 130.1 -151.5 137.5 -137.5C145 -123.6 170 -129.7 188.3 -125.8C206.7 -121.9 218.5 -108 224.8 -93.1C231.2 -78.2 232.2 -62.3 234.4 -46.6C236.6 -30.9 240 -15.5 243.4 0L0 0Z" fill="#4d00ff"></path></g></svg>