<svg id="visual" viewBox="0 0 900 600" width="900" height="600" xmlns="http://www.w3.org/2000/svg" xmlns:xlink="http://www.w3.org/1999/xlink" version="1.1"><rect x="0" y="0" width="900" height="600" fill="#001122"></rect><defs><linearGradient id="grad1_0" x1="33.3%" y1="0%" x2="100%" y2="100%"><stop offset="20%" stop-color="#ff0066" stop-opacity="1"></stop><stop offset="80%" stop-color="#ff0066" stop-opacity="1"></stop></linearGradient></defs><defs><linearGradient id="grad1_1" x1="33.3%" y1="0%" x2="100%" y2="100%"><stop offset="20%" stop-color="#ff0066" stop-opacity="1"></stop><stop offset="80%" stop-color="#d80a77" stop-opacity="1"></stop></linearGradient></defs><defs><linearGradient id="grad1_2" x1="33.3%" y1="0%" x2="100%" y2="100%"><stop offset="20%" stop-color="#ac207e" stop-opacity="1"></stop><stop offset="80%" stop-color="#d80a77" stop-opacity="1"></stop></linearGradient></defs><defs><linearGradient id="grad1_3" x1="33.3%" y1="0%" x2="100%" y2="100%"><stop offset="20%" stop-color="#ac207e" stop-opacity="1"></stop><stop offset="80%" stop-color="#7e2b7b" stop-opacity="1"></stop></linearGradient></defs><defs><linearGradient id="grad1_4" x1="33.3%" y1="0%" x2="100%" y2="100%"><stop offset="20%" stop-color="#512c6e" stop-opacity="1"></stop><stop offset="80%" stop-color="#7e2b7b" stop-opacity="1"></stop></linearGradient></defs><defs><linearGradient id="grad1_5" x1="33.3%" y1="0%" x2="100%" y2="100%"><stop offset="20%" stop-color="#512c6e" stop-opacity="1"></stop><stop offset="80%" stop-color="#2a2859" stop-opacity="1"></stop></linearGradient></defs><defs><linearGradient id="grad1_6" x1="33.3%" y1="0%" x2="100%" y2="100%"><stop offset="20%" stop-color="#0c1e3e" stop-opacity="1"></stop><stop offset="80%" stop-color="#2a2859" stop-opacity="1"></stop></linearGradient></defs><defs><linearGradient id="grad1_7" x1="33.3%" y1="0%" x2="100%" y2="100%"><stop offset="20%" stop-color="#0c1e3e" stop-opacity="1"></stop><stop offset="80%" stop-color="#001122" stop-opacity="1"></stop></linearGradient></defs><defs><linearGradient id="grad2_0" x1="0%" y1="0%" x2="66.7%" y2="100%"><stop offset="20%" stop-color="#ff0066" stop-opacity="1"></stop><stop offset="80%" stop-color="#ff0066" stop-opacity="1"></stop></linearGradient></defs><defs><linearGradient id="grad2_1" x1="0%" y1="0%" x2="66.7%" y2="100%"><stop offset="20%" stop-color="#d80a77" stop-opacity="1"></stop><stop offset="80%" stop-color="#ff0066" stop-opacity="1"></stop></linearGradient></defs><defs><linearGradient id="grad2_2" x1="0%" y1="0%" x2="66.7%" y2="100%"><stop offset="20%" stop-color="#d80a77" stop-opacity="1"></stop><stop offset="80%" stop-color="#ac207e" stop-opacity="1"></stop></linearGradient></defs><defs><linearGradient id="grad2_3" x1="0%" y1="0%" x2="66.7%" y2="100%"><stop offset="20%" stop-color="#7e2b7b" stop-opacity="1"></stop><stop offset="80%" stop-color="#ac207e" stop-opacity="1"></stop></linearGradient></defs><defs><linearGradient id="grad2_4" x1="0%" y1="0%" x2="66.7%" y2="100%"><stop offset="20%" stop-color="#7e2b7b" stop-opacity="1"></stop><stop offset="80%" stop-color="#512c6e" stop-opacity="1"></stop></linearGradient></defs><defs><linearGradient id="grad2_5" x1="0%" y1="0%" x2="66.7%" y2="100%"><stop offset="20%" stop-color="#2a2859" stop-opacity="1"></stop><stop offset="80%" stop-color="#512c6e" stop-opacity="1"></stop></linearGradient></defs><defs><linearGradient id="grad2_6" x1="0%" y1="0%" x2="66.7%" y2="100%"><stop offset="20%" stop-color="#2a2859" stop-opacity="1"></stop><stop offset="80%" stop-color="#0c1e3e" stop-opacity="1"></stop></linearGradient></defs><defs><linearGradient id="grad2_7" x1="0%" y1="0%" x2="66.7%" y2="100%"><stop offset="20%" stop-color="#001122" stop-opacity="1"></stop><stop offset="80%" stop-color="#0c1e3e" stop-opacity="1"></stop></linearGradient></defs><g transform="translate(900, 0)"><path d="M0 540.8C-75.8 539.9 -151.6 538.9 -207 499.7C-262.4 460.4 -297.4 382.8 -321 321C-344.7 259.2 -357 213.1 -391.7 162.3C-426.5 111.4 -483.6 55.7 -540.8 0L0 0Z" fill="#041830"></path><path d="M0 473.2C-66.3 472.4 -132.6 471.6 -181.1 437.2C-229.6 402.9 -260.2 335 -280.9 280.9C-301.6 226.8 -312.4 186.5 -342.8 142C-373.2 97.5 -423.2 48.7 -473.2 0L0 0Z" fill="#1a234c"></path><path d="M0 405.6C-56.8 404.9 -113.7 404.2 -155.2 374.7C-196.8 345.3 -223 287.1 -240.8 240.8C-258.5 194.4 -267.7 159.9 -293.8 121.7C-319.9 83.5 -362.7 41.8 -405.6 0L0 0Z" fill="#3d2b64"></path><path d="M0 338C-47.4 337.4 -94.7 336.8 -129.4 312.3C-164 287.8 -185.9 239.3 -200.6 200.6C-215.4 162 -223.1 133.2 -244.8 101.4C-266.5 69.6 -302.3 34.8 -338 0L0 0Z" fill="#672c76"></path><path d="M0 270.4C-37.9 269.9 -75.8 269.5 -103.5 249.8C-131.2 230.2 -148.7 191.4 -160.5 160.5C-172.3 129.6 -178.5 106.6 -195.9 81.1C-213.2 55.7 -241.8 27.8 -270.4 0L0 0Z" fill="#95277e"></path><path d="M0 202.8C-28.4 202.5 -56.8 202.1 -77.6 187.4C-98.4 172.7 -111.5 143.6 -120.4 120.4C-129.3 97.2 -133.9 79.9 -146.9 60.8C-159.9 41.8 -181.4 20.9 -202.8 0L0 0Z" fill="#c2177c"></path><path d="M0 135.2C-18.9 135 -37.9 134.7 -51.7 124.9C-65.6 115.1 -74.3 95.7 -80.3 80.3C-86.2 64.8 -89.2 53.3 -97.9 40.6C-106.6 27.8 -120.9 13.9 -135.2 0L0 0Z" fill="#ec0070"></path><path d="M0 67.6C-9.5 67.5 -18.9 67.4 -25.9 62.5C-32.8 57.6 -37.2 47.9 -40.1 40.1C-43.1 32.4 -44.6 26.6 -49 20.3C-53.3 13.9 -60.5 7 -67.6 0L0 0Z" fill="#ff0066"></path></g><g transform="translate(0, 600)"><path d="M0 -540.8C80.8 -545.8 161.5 -550.9 207 -499.7C252.4 -448.5 262.5 -341.1 274.4 -274.4C286.2 -207.7 299.9 -181.7 344.6 -142.7C389.3 -103.8 465.1 -51.9 540.8 0L0 0Z" fill="#041830"></path><path d="M0 -473.2C70.7 -477.6 141.3 -482 181.1 -437.2C220.8 -392.4 229.7 -298.4 240.1 -240.1C250.5 -181.7 262.4 -159 301.5 -124.9C340.7 -90.8 406.9 -45.4 473.2 0L0 0Z" fill="#1a234c"></path><path d="M0 -405.6C60.6 -409.4 121.2 -413.1 155.2 -374.7C189.3 -336.3 196.9 -255.8 205.8 -205.8C214.7 -155.7 224.9 -136.3 258.5 -107.1C292 -77.9 348.8 -38.9 405.6 0L0 0Z" fill="#3d2b64"></path><path d="M0 -338C50.5 -341.2 101 -344.3 129.4 -312.3C157.7 -280.3 164.1 -213.2 171.5 -171.5C178.9 -129.8 187.4 -113.6 215.4 -89.2C243.3 -64.9 290.7 -32.4 338 0L0 0Z" fill="#672c76"></path><path d="M0 -270.4C40.4 -272.9 80.8 -275.4 103.5 -249.8C126.2 -224.2 131.2 -170.5 137.2 -137.2C143.1 -103.8 149.9 -90.8 172.3 -71.4C194.7 -51.9 232.5 -26 270.4 0L0 0Z" fill="#95277e"></path><path d="M0 -202.8C30.3 -204.7 60.6 -206.6 77.6 -187.4C94.6 -168.2 98.4 -127.9 102.9 -102.9C107.3 -77.9 112.5 -68.1 129.2 -53.5C146 -38.9 174.4 -19.5 202.8 0L0 0Z" fill="#c2177c"></path><path d="M0 -135.2C20.2 -136.5 40.4 -137.7 51.7 -124.9C63.1 -112.1 65.6 -85.3 68.6 -68.6C71.6 -51.9 75 -45.4 86.2 -35.7C97.3 -26 116.3 -13 135.2 0L0 0Z" fill="#ec0070"></path><path d="M0 -67.6C10.1 -68.2 20.2 -68.9 25.9 -62.5C31.5 -56.1 32.8 -42.6 34.3 -34.3C35.8 -26 37.5 -22.7 43.1 -17.8C48.7 -13 58.1 -6.5 67.6 0L0 0Z" fill="#ff0066"></path></g></svg>