<svg id="visual" viewBox="0 0 900 600" width="900" height="600" xmlns="http://www.w3.org/2000/svg" xmlns:xlink="http://www.w3.org/1999/xlink" version="1.1"><g stroke-width="1" stroke-linejoin="bevel"><path d="M426 284L393 210L314 266Z" fill="#ff8bdb" stroke="#ff8bdb"></path><path d="M314 266L399 375L426 284Z" fill="#ff60ae" stroke="#ff60ae"></path><path d="M393 210L282 177L314 266Z" fill="#ff7dcd" stroke="#ff7dcd"></path><path d="M399 375L466 374L426 284Z" fill="#ff3e8c" stroke="#ff3e8c"></path><path d="M538 296L498 185L426 284Z" fill="#ff6fbe" stroke="#ff6fbe"></path><path d="M426 284L498 185L393 210Z" fill="#ff8bdb" stroke="#ff8bdb"></path><path d="M393 210L422 80L282 177Z" fill="#ff2879" stroke="#ff2879"></path><path d="M282 177L212 230L314 266Z" fill="#ff0066" stroke="#ff0066"></path><path d="M314 266L265 392L399 375Z" fill="#ff509e" stroke="#ff509e"></path><path d="M214 331L265 392L314 266Z" fill="#ffb2ff" stroke="#ffb2ff"></path><path d="M399 375L394 502L466 374Z" fill="#ff98e8" stroke="#ff98e8"></path><path d="M466 374L538 296L426 284Z" fill="#ff8bdb" stroke="#ff8bdb"></path><path d="M212 230L214 331L314 266Z" fill="#ff3e8c" stroke="#ff3e8c"></path><path d="M498 185L422 80L393 210Z" fill="#ffa5f4" stroke="#ffa5f4"></path><path d="M693 333L573 266L538 296Z" fill="#ff509e" stroke="#ff509e"></path><path d="M538 296L573 266L498 185Z" fill="#ff6fbe" stroke="#ff6fbe"></path><path d="M498 185L518 116L422 80Z" fill="#ff0066" stroke="#ff0066"></path><path d="M273 85L215 135L282 177Z" fill="#ff0066" stroke="#ff0066"></path><path d="M282 177L215 135L212 230Z" fill="#ff8bdb" stroke="#ff8bdb"></path><path d="M422 80L273 85L282 177Z" fill="#ffa5f4" stroke="#ffa5f4"></path><path d="M639 212L518 116L498 185Z" fill="#ff8bdb" stroke="#ff8bdb"></path><path d="M77 315L179 370L214 331Z" fill="#ff8bdb" stroke="#ff8bdb"></path><path d="M214 331L179 370L265 392Z" fill="#ff509e" stroke="#ff509e"></path><path d="M77 315L214 331L212 230Z" fill="#ff6fbe" stroke="#ff6fbe"></path><path d="M299 530L394 502L265 392Z" fill="#ff2879" stroke="#ff2879"></path><path d="M265 392L394 502L399 375Z" fill="#ff8bdb" stroke="#ff8bdb"></path><path d="M466 374L578 425L538 296Z" fill="#ff0066" stroke="#ff0066"></path><path d="M394 502L495 488L466 374Z" fill="#ff98e8" stroke="#ff98e8"></path><path d="M179 370L219 475L265 392Z" fill="#ff8bdb" stroke="#ff8bdb"></path><path d="M495 488L578 425L466 374Z" fill="#ffa5f4" stroke="#ffa5f4"></path><path d="M467 0L423 0L422 80Z" fill="#ff0066" stroke="#ff0066"></path><path d="M422 80L286 0L273 85Z" fill="#ff2879" stroke="#ff2879"></path><path d="M673 235L639 212L573 266Z" fill="#ff509e" stroke="#ff509e"></path><path d="M573 266L639 212L498 185Z" fill="#ff509e" stroke="#ff509e"></path><path d="M518 116L467 0L422 80Z" fill="#ff8bdb" stroke="#ff8bdb"></path><path d="M219 475L299 530L265 392Z" fill="#ffa5f4" stroke="#ffa5f4"></path><path d="M394 502L524 600L495 488Z" fill="#ff6fbe" stroke="#ff6fbe"></path><path d="M202 0L115 118L215 135Z" fill="#ff60ae" stroke="#ff60ae"></path><path d="M423 0L286 0L422 80Z" fill="#ffa5f4" stroke="#ffa5f4"></path><path d="M597 68L467 0L518 116Z" fill="#ffb2ff" stroke="#ffb2ff"></path><path d="M202 0L215 135L273 85Z" fill="#ff0066" stroke="#ff0066"></path><path d="M215 135L115 118L212 230Z" fill="#ff60ae" stroke="#ff60ae"></path><path d="M639 212L597 68L518 116Z" fill="#ffb2ff" stroke="#ffb2ff"></path><path d="M73 171L77 315L212 230Z" fill="#ff2879" stroke="#ff2879"></path><path d="M179 370L104 433L219 475Z" fill="#ff509e" stroke="#ff509e"></path><path d="M693 333L673 235L573 266Z" fill="#ff8bdb" stroke="#ff8bdb"></path><path d="M639 212L726 89L597 68Z" fill="#ff3e8c" stroke="#ff3e8c"></path><path d="M115 118L73 171L212 230Z" fill="#ff8bdb" stroke="#ff8bdb"></path><path d="M286 0L202 0L273 85Z" fill="#ff509e" stroke="#ff509e"></path><path d="M115 118L0 114L73 171Z" fill="#ff7dcd" stroke="#ff7dcd"></path><path d="M77 315L104 433L179 370Z" fill="#ff98e8" stroke="#ff98e8"></path><path d="M235 600L271 600L299 530Z" fill="#ff8bdb" stroke="#ff8bdb"></path><path d="M578 425L693 333L538 296Z" fill="#ff2879" stroke="#ff2879"></path><path d="M271 600L368 600L299 530Z" fill="#ffb2ff" stroke="#ffb2ff"></path><path d="M299 530L368 600L394 502Z" fill="#ff2879" stroke="#ff2879"></path><path d="M495 488L630 500L578 425Z" fill="#ffb2ff" stroke="#ffb2ff"></path><path d="M578 425L723 420L693 333Z" fill="#ff6fbe" stroke="#ff6fbe"></path><path d="M682 0L591 0L597 68Z" fill="#ff3e8c" stroke="#ff3e8c"></path><path d="M597 68L591 0L467 0Z" fill="#ff2879" stroke="#ff2879"></path><path d="M524 600L630 500L495 488Z" fill="#ff6fbe" stroke="#ff6fbe"></path><path d="M235 600L299 530L219 475Z" fill="#ff0066" stroke="#ff0066"></path><path d="M120 539L235 600L219 475Z" fill="#ff2879" stroke="#ff2879"></path><path d="M202 0L120 0L115 118Z" fill="#ff98e8" stroke="#ff98e8"></path><path d="M368 600L524 600L394 502Z" fill="#ff60ae" stroke="#ff60ae"></path><path d="M77 315L0 393L104 433Z" fill="#ff2879" stroke="#ff2879"></path><path d="M0 234L0 272L77 315Z" fill="#ff98e8" stroke="#ff98e8"></path><path d="M0 234L77 315L73 171Z" fill="#ff98e8" stroke="#ff98e8"></path><path d="M0 114L0 234L73 171Z" fill="#ff2879" stroke="#ff2879"></path><path d="M104 433L120 539L219 475Z" fill="#ff7dcd" stroke="#ff7dcd"></path><path d="M0 514L120 539L104 433Z" fill="#ff3e8c" stroke="#ff3e8c"></path><path d="M705 535L723 420L630 500Z" fill="#ffa5f4" stroke="#ffa5f4"></path><path d="M630 500L723 420L578 425Z" fill="#ff0066" stroke="#ff0066"></path><path d="M817 182L726 89L673 235Z" fill="#ff6fbe" stroke="#ff6fbe"></path><path d="M0 272L0 393L77 315Z" fill="#ff7dcd" stroke="#ff7dcd"></path><path d="M673 235L726 89L639 212Z" fill="#ff98e8" stroke="#ff98e8"></path><path d="M818 279L673 235L693 333Z" fill="#ff6fbe" stroke="#ff6fbe"></path><path d="M0 0L0 114L115 118Z" fill="#ff509e" stroke="#ff509e"></path><path d="M726 89L682 0L597 68Z" fill="#ffb2ff" stroke="#ffb2ff"></path><path d="M0 600L138 600L120 539Z" fill="#ff60ae" stroke="#ff60ae"></path><path d="M120 539L138 600L235 600Z" fill="#ffa5f4" stroke="#ffa5f4"></path><path d="M524 600L620 600L630 500Z" fill="#ff6fbe" stroke="#ff6fbe"></path><path d="M620 600L705 535L630 500Z" fill="#ffa5f4" stroke="#ffa5f4"></path><path d="M802 408L693 333L723 420Z" fill="#ff98e8" stroke="#ff98e8"></path><path d="M802 408L818 279L693 333Z" fill="#ff0066" stroke="#ff0066"></path><path d="M0 393L0 514L104 433Z" fill="#ff8bdb" stroke="#ff8bdb"></path><path d="M818 279L817 182L673 235Z" fill="#ff3e8c" stroke="#ff3e8c"></path><path d="M726 89L774 0L682 0Z" fill="#ff2879" stroke="#ff2879"></path><path d="M807 473L802 408L723 420Z" fill="#ff2879" stroke="#ff2879"></path><path d="M120 0L0 0L115 118Z" fill="#ffa5f4" stroke="#ffa5f4"></path><path d="M620 600L685 600L705 535Z" fill="#ff509e" stroke="#ff509e"></path><path d="M705 535L807 473L723 420Z" fill="#ff509e" stroke="#ff509e"></path><path d="M837 111L774 0L726 89Z" fill="#ff2879" stroke="#ff2879"></path><path d="M817 600L807 473L705 535Z" fill="#ffa5f4" stroke="#ffa5f4"></path><path d="M900 309L900 221L818 279Z" fill="#ff98e8" stroke="#ff98e8"></path><path d="M817 182L837 111L726 89Z" fill="#ff0066" stroke="#ff0066"></path><path d="M900 221L837 111L817 182Z" fill="#ff2879" stroke="#ff2879"></path><path d="M900 221L817 182L818 279Z" fill="#ff6fbe" stroke="#ff6fbe"></path><path d="M0 514L0 600L120 539Z" fill="#ff2879" stroke="#ff2879"></path><path d="M900 309L818 279L802 408Z" fill="#ff2879" stroke="#ff2879"></path><path d="M837 111L900 74L774 0Z" fill="#ff509e" stroke="#ff509e"></path><path d="M900 425L900 309L802 408Z" fill="#ff2879" stroke="#ff2879"></path><path d="M900 507L900 425L807 473Z" fill="#ff3e8c" stroke="#ff3e8c"></path><path d="M807 473L900 425L802 408Z" fill="#ff2879" stroke="#ff2879"></path><path d="M685 600L817 600L705 535Z" fill="#ff8bdb" stroke="#ff8bdb"></path><path d="M900 221L900 74L837 111Z" fill="#ffb2ff" stroke="#ffb2ff"></path><path d="M817 600L900 507L807 473Z" fill="#ff7dcd" stroke="#ff7dcd"></path><path d="M900 74L900 0L774 0Z" fill="#ffb2ff" stroke="#ffb2ff"></path><path d="M817 600L900 600L900 507Z" fill="#ffb2ff" stroke="#ffb2ff"></path></g></svg>