<svg id="visual" viewBox="0 0 900 600" width="900" height="600" xmlns="http://www.w3.org/2000/svg" xmlns:xlink="http://www.w3.org/1999/xlink" version="1.1"><path d="M0 25L30 20.8C60 16.7 120 8.3 180 11.3C240 14.3 300 28.7 360 46.8C420 65 480 87 540 87C600 87 660 65 720 69C780 73 840 103 870 118L900 133L900 0L870 0C840 0 780 0 720 0C660 0 600 0 540 0C480 0 420 0 360 0C300 0 240 0 180 0C120 0 60 0 30 0L0 0Z" fill="#bb004d"></path><path d="M0 55L30 57C60 59 120 63 180 68C240 73 300 79 360 90C420 101 480 117 540 111C600 105 660 77 720 82C780 87 840 125 870 144L900 163L900 131L870 116C840 101 780 71 720 67C660 63 600 85 540 85C480 85 420 63 360 45.2C300 27.3 240 13.7 180 10.7C120 7.7 60 15.3 30 19.2L0 23Z" fill="#ce0054"></path><path d="M0 85L30 103C60 121 120 157 180 184C240 211 300 229 360 250C420 271 480 295 540 268C600 241 660 163 720 176C780 189 840 293 870 345L900 397L900 161L870 142C840 123 780 85 720 80C660 75 600 103 540 109C480 115 420 99 360 88C300 77 240 71 180 66C120 61 60 57 30 55L0 53Z" fill="#e1005b"></path><path d="M0 145L30 176C60 207 120 269 180 294C240 319 300 307 360 311C420 315 480 335 540 325C600 315 660 275 720 301C780 327 840 419 870 465L900 511L900 395L870 343C840 291 780 187 720 174C660 161 600 239 540 266C480 293 420 269 360 248C300 227 240 209 180 182C120 155 60 119 30 101L0 83Z" fill="#f50062"></path><path d="M0 205L30 233C60 261 120 317 180 340C240 363 300 353 360 359C420 365 480 387 540 385C600 383 660 357 720 380C780 403 840 475 870 511L900 547L900 509L870 463C840 417 780 325 720 299C660 273 600 313 540 323C480 333 420 313 360 309C300 305 240 317 180 292C120 267 60 205 30 174L0 143Z" fill="#ff266f"></path><path d="M0 451L30 448C60 445 120 439 180 445C240 451 300 469 360 473C420 477 480 467 540 469C600 471 660 485 720 504C780 523 840 547 870 559L900 571L900 545L870 509C840 473 780 401 720 378C660 355 600 381 540 383C480 385 420 363 360 357C300 351 240 361 180 338C120 315 60 259 30 231L0 203Z" fill="#ff487f"></path><path d="M0 499L30 501C60 503 120 507 180 514C240 521 300 531 360 528C420 525 480 509 540 502C600 495 660 497 720 513C780 529 840 559 870 574L900 589L900 569L870 557C840 545 780 521 720 502C660 483 600 469 540 467C480 465 420 475 360 471C300 467 240 449 180 443C120 437 60 443 30 446L0 449Z" fill="#ff608f"></path><path d="M0 601L30 601C60 601 120 601 180 601C240 601 300 601 360 601C420 601 480 601 540 601C600 601 660 601 720 601C780 601 840 601 870 601L900 601L900 587L870 572C840 557 780 527 720 511C660 495 600 493 540 500C480 507 420 523 360 526C300 529 240 519 180 512C120 505 60 501 30 499L0 497Z" fill="#ff749e"></path></svg>